<svg width="172" height="172" viewBox="0 0 172 172" fill="none" xmlns="http://www.w3.org/2000/svg">
<path d="M143.333 28.6665H28.6666C20.7833 28.6665 14.405 35.1165 14.405 42.9998L14.3333 129C14.3333 136.883 20.7833 143.333 28.6666 143.333H143.333C151.217 143.333 157.667 136.883 157.667 129V42.9998C157.667 35.1165 151.217 28.6665 143.333 28.6665ZM140.467 59.1248L89.7983 90.8015C87.505 92.2348 84.495 92.2348 82.2016 90.8015L31.5333 59.1248C30.8147 58.7214 30.1854 58.1764 29.6835 57.5228C29.1816 56.8691 28.8176 56.1204 28.6134 55.322C28.4093 54.5236 28.3692 53.692 28.4958 52.8777C28.6223 52.0634 28.9127 51.2832 29.3495 50.5843C29.7863 49.8855 30.3603 49.2825 31.0368 48.812C31.7134 48.3414 32.4784 48.013 33.2855 47.8466C34.0927 47.6803 34.9252 47.6794 35.7327 47.8441C36.5401 48.0088 37.3058 48.3357 37.9833 48.8048L86 78.8332L134.017 48.8048C134.694 48.3357 135.46 48.0088 136.267 47.8441C137.075 47.6794 137.907 47.6803 138.714 47.8466C139.522 48.013 140.287 48.3414 140.963 48.812C141.64 49.2825 142.214 49.8855 142.65 50.5843C143.087 51.2832 143.378 52.0634 143.504 52.8777C143.631 53.692 143.591 54.5236 143.387 55.322C143.182 56.1204 142.818 56.8691 142.316 57.5228C141.815 58.1764 141.185 58.7214 140.467 59.1248Z" fill="#C75A5A"/>
</svg>
