<svg width="909" height="333" viewBox="0 0 909 333" fill="none" xmlns="http://www.w3.org/2000/svg">
<path fill-rule="evenodd" clip-rule="evenodd" d="M89.25 111.25C89.15 109.85 89.1 109.1 89.1 109L60.6 109.15C60.6 110.05 60.65 110.8 60.75 111.4L68.55 112.15C69.55 112.25 70.15 112.95 70.35 114.25V160.45H19.2V112.3L30.3 111.25C30.2 109.85 30.15 109.1 30.15 109L0 109.15L0.15 111.4L7.95 112.15C8.95 112.25 9.55 112.9 9.75 114.1V209.2C9.55 210.3 8.95 210.9 7.95 211L0.15 212.05L0 214.15L30.15 214C30.25 212.6 30.3 211.85 30.3 211.75L19.2 211.15V163.45H70.35V209.05C70.15 210.25 69.55 210.9 68.55 211L60.75 212.05C60.65 212.55 60.6 213.25 60.6 214.15L90.6 214C90.7 212.6 90.75 211.85 90.75 211.75L79.8 211.15V112.3L89.25 111.25ZM96.1559 212.05L96.0059 214.15L126.156 214C126.256 212.6 126.306 211.85 126.306 211.75L108.906 210.85L116.856 184.75H163.656L171.906 209.2C171.906 210.3 171.506 210.9 170.706 211L162.906 212.05C162.806 212.55 162.756 213.25 162.756 214.15L192.756 214C192.856 212.6 192.906 211.85 192.906 211.75L182.556 211.15L148.056 109H138.156L105.756 209.05C105.256 210.25 104.656 210.9 103.956 211L96.1559 212.05ZM117.756 181.75L139.206 111.85L162.606 181.75H117.756ZM198.814 214.15L198.964 212.05L206.764 211C207.764 210.9 208.364 210.25 208.564 209.05H208.714V114.25H208.564C208.364 112.95 207.764 112.25 206.764 112.15L198.964 111.4L198.814 109.15L228.964 109C228.964 109.1 229.014 109.85 229.114 111.25L218.914 112.15V211.15L229.114 211.75C229.114 211.85 229.064 212.6 228.964 214L198.814 214.15ZM271.595 111.25C271.495 109.85 271.445 109.1 271.445 109L241.295 109.15L241.445 111.4L249.245 112.15C250.245 112.25 250.845 112.9 251.045 114.1V209.05C250.845 210.25 250.245 210.9 249.245 211L241.445 212.05L241.295 214.15L271.445 214H306.245L308.495 187.75L305.645 187L302.645 211H261.245V112.15L271.595 111.25ZM317.16 111.25L317.31 109H381.51L381.36 109.45L383.31 130.6L380.31 131.8L377.91 112H337.11V160.45H372.96C373.46 160.55 373.91 160.45 374.31 160.15C374.71 159.75 374.91 159.25 374.91 158.65L375.51 148.3L377.91 148V173.65C377.81 173.65 377.06 173.7 375.66 173.8L375.06 163.45H337.11V211H381.96L384.81 187L387.66 187.75L385.41 214H347.31L317.16 214.15L317.31 212.05L325.11 211C326.11 210.9 326.71 210.25 326.91 209.05V114.1C326.71 112.9 326.11 112.25 325.11 112.15L317.16 111.25ZM483.715 111.25C483.615 109.85 483.565 109.1 483.565 109L454.315 109.15C454.315 110.05 454.365 110.8 454.465 111.4L468.115 112.6C469.015 112.7 469.465 113.35 469.465 114.55L441.415 176.05L410.365 112.3L422.665 111.25C422.565 109.85 422.515 109.1 422.515 109L392.215 109.15C392.215 110.05 392.265 110.8 392.365 111.4L398.665 112C399.065 112.2 399.465 112.45 399.865 112.75L433.615 178.6V209.05C433.415 210.25 432.815 210.9 431.815 211L424.015 212.05C423.915 212.55 423.865 213.25 423.865 214.15L453.865 214C453.965 212.6 454.015 211.85 454.015 211.75L443.065 211.15V178.6L475.165 112L483.715 111.25Z" fill="black"/>
<path d="M568.5 236.25C567 236.25 566.083 235.333 565.75 233.5L556.5 207.5C555.5 205.333 554.25 202.333 552.75 198.5C551.25 194.667 549.417 190 547.25 184.5C546.417 182.167 545.583 179.5 544.75 176.5C543.917 173.5 543.167 170.167 542.5 166.5C541.667 162.667 540.833 159.833 540 158C539.333 156 538.75 154.25 538.25 152.75C537.75 151.25 536.917 148.583 535.75 144.75C534.583 140.917 533.25 136.667 531.75 132C530.25 127.167 528.75 122.667 527.25 118.5C525.917 114.167 524.833 110.917 524 108.75L517.75 92.75C517.083 95.5833 516.583 98.3333 516.25 101C515.917 103.5 515.583 105.833 515.25 108C515.083 110.667 514.75 114.083 514.25 118.25C513.75 122.25 513.167 127.083 512.5 132.75C512.5 132.75 512.333 134.5 512 138C511.667 141.333 511.25 145.333 510.75 150C510.417 154.5 510.083 158.667 509.75 162.5C509.417 166.167 509.167 168.5 509 169.5C508.667 171.833 508.25 174.583 507.75 177.75C507.417 180.75 507 184.667 506.5 189.5C506.167 194.333 505.667 200.75 505 208.75L502 226.5C501.833 231 500.333 233.25 497.5 233.25C494.333 233.25 493.083 230.75 493.75 225.75C494.083 223.917 494.5 221.583 495 218.75C495.5 215.75 495.917 212.333 496.25 208.5C497.25 198.333 498.083 190.167 498.75 184C499.417 177.833 499.917 172.75 500.25 168.75C500.75 164.75 501.167 160.917 501.5 157.25L504 132.5C504.333 129.833 504.75 126.417 505.25 122.25C505.917 118.083 506.667 113.167 507.5 107.5C508.333 103 509.333 96 510.5 86.5L511.75 76C512.25 72.1667 513.833 70.25 516.5 70.25C518 70.25 519.167 71.1667 520 73L524 82.5C524.167 82.6667 524.833 84.4167 526 87.75C527.333 91.0833 529.083 95.9167 531.25 102.25L540.5 129C541.333 131.333 542.083 133.583 542.75 135.75C543.417 137.75 544.333 140.667 545.5 144.5C547 149.167 548.333 154 549.5 159C550.833 163.833 552.417 169.917 554.25 177.25C555.25 179.583 556.5 182.75 558 186.75C559.667 190.75 561.583 195.583 563.75 201.25C564.083 202.083 564.583 203.333 565.25 205C565.917 206.667 566.667 208.75 567.5 211.25C569.5 199.917 570.5 192.917 570.5 190.25C571.333 186.417 572.333 181.5 573.5 175.5C574.667 169.333 575.667 162 576.5 153.5L579.25 127.5C579.917 124.167 580.583 119.917 581.25 114.75C582.083 109.583 583.083 103.417 584.25 96.25C584.583 93.9167 584.917 91.3333 585.25 88.5C585.583 85.6667 585.833 83.5 586 82C586.333 77.6667 587.917 75.5 590.75 75.5C593.583 75.5 594.917 77.8333 594.75 82.5C594.583 83.6667 594.333 85.25 594 87.25C593.833 89.25 593.5 91.75 593 94.75C592.333 99.75 592 102.25 592 102.25C591.333 104.583 590.583 108 589.75 112.5C589.083 116.833 588.333 122.167 587.5 128.5L584.5 153.75C584.333 155.75 583.917 158.667 583.25 162.5C582.583 166.167 581.917 170.083 581.25 174.25C580.75 178.417 580.25 182.083 579.75 185.25C579.25 188.417 579 190.417 579 191.25C579 193.417 578.5 196.917 577.5 201.75C576.5 206.417 575.667 210.833 575 215C574.833 216.667 574.583 218.833 574.25 221.5C573.917 224 573.583 227 573.25 230.5C572.917 234.333 571.333 236.25 568.5 236.25ZM595.461 332.25C584.794 332.25 579.461 326.167 579.461 314C579.461 293.333 599.044 269.917 638.211 243.75C639.044 243.417 640.044 242.667 641.211 241.5C641.044 236.667 641.044 232.25 641.211 228.25C641.378 224.25 641.711 220.667 642.211 217.5C640.878 218.833 639.461 220.167 637.961 221.5C636.628 222.833 635.128 224.167 633.461 225.5C628.794 229.167 624.544 231 620.711 231C612.378 231 608.211 223.167 608.211 207.5C608.211 190.167 610.128 176.917 613.961 167.75C614.794 166.25 615.961 165.5 617.461 165.5C620.794 165.5 622.461 167.583 622.461 171.75C622.461 174.917 621.711 179.667 620.211 186C618.211 194.167 617.211 200.417 617.211 204.75C617.211 214.417 619.294 219.25 623.461 219.25C626.794 219.25 631.044 216.25 636.211 210.25C638.211 208.083 640.044 205.917 641.711 203.75C643.378 201.583 644.794 199.417 645.961 197.25L648.711 192.5L654.961 179.5L656.961 175C657.794 173.5 658.878 172.75 660.211 172.75C662.711 172.75 663.961 173.917 663.961 176.25C663.961 176.583 663.794 177.083 663.461 177.75L662.961 178.5V180C660.128 185.667 657.628 193.333 655.461 203C653.461 212.667 651.878 224.417 650.711 238.25L664.211 233.75C666.544 233.75 667.711 235.083 667.711 237.75C667.711 239.25 666.961 240.167 665.461 240.5C661.794 241.667 656.544 243.167 649.711 245C649.044 250.5 648.378 255.333 647.711 259.5C647.044 263.667 646.378 267.167 645.711 270C641.711 286.333 635.794 300.167 627.961 311.5C618.128 325.333 607.294 332.25 595.461 332.25ZM595.711 325.25C604.378 325.25 612.961 318.583 621.461 305.25C625.128 299.417 628.128 293.417 630.461 287.25C632.961 281.083 634.794 274.833 635.961 268.5C636.128 266.333 636.128 263.917 635.961 261.25C635.294 258.25 634.211 256.75 632.711 256.75C632.044 256.75 631.294 257 630.461 257.5L629.961 257.25C600.961 276.917 586.461 295.917 586.461 314.25C586.461 321.583 589.544 325.25 595.711 325.25ZM691.617 232.25C685.284 232.25 680.201 229.25 676.367 223.25C673.201 218.417 671.617 213.167 671.617 207.5C671.617 201.333 672.451 195.583 674.117 190.25C675.951 184.75 678.451 179.667 681.617 175C688.617 165 697.367 160 707.867 160C711.534 160 714.451 161.417 716.617 164.25C718.951 166.917 719.867 169.75 719.367 172.75C718.534 177.583 716.784 180 714.117 180C712.951 180 712.367 179.417 712.367 178.25C712.367 177.583 712.617 176.917 713.117 176.25H712.867C713.534 175.417 713.867 174.333 713.867 173C713.867 171.167 713.034 169.583 711.367 168.25C709.867 166.75 708.201 166 706.367 166C699.034 166 692.701 170.75 687.367 180.25C682.701 188.417 680.367 197 680.367 206C680.367 210.5 681.534 214.417 683.867 217.75C686.367 221.583 689.784 223.5 694.117 223.5C701.451 223.5 708.367 220.917 714.867 215.75C715.534 215.083 716.367 214.75 717.367 214.75C719.034 214.75 719.867 215.75 719.867 217.75C719.867 219.083 719.367 220.25 718.367 221.25C712.034 228.583 703.117 232.25 691.617 232.25ZM776.672 230C773.005 230.167 770.172 228 768.172 223.5C767.839 222.667 767.422 221.25 766.922 219.25C766.422 217.25 765.755 214.667 764.922 211.5C764.255 207.333 763.172 205.667 761.672 206.5C759.005 210.667 755.172 215.25 750.172 220.25C743.839 226.583 739.089 229.75 735.922 229.75C732.422 229.75 729.422 227.083 726.922 221.75C724.755 217.583 723.672 213.583 723.672 209.75C723.672 196.917 725.339 185.667 728.672 176C729.505 174 730.755 173 732.422 173C733.922 173 735.339 173.75 736.672 175.25C738.005 176.75 738.672 178.417 738.672 180.25C738.672 181.25 738.005 183.25 736.672 186.25C733.505 192.417 731.922 199.333 731.922 207C731.922 215.333 733.505 219.5 736.672 219.5C738.172 219.5 741.839 217.083 747.672 212.25C758.005 203.417 765.422 191.917 769.922 177.75C770.755 175.75 772.089 174.75 773.922 174.75C776.922 174.75 778.422 176 778.422 178.5C778.422 180.167 778.172 182 777.672 184C777.339 186 776.755 188.25 775.922 190.75C775.255 193.25 774.755 195.5 774.422 197.5C774.089 199.5 773.922 201.333 773.922 203C773.922 204.167 774.005 205.583 774.172 207.25C774.339 208.75 774.589 210.417 774.922 212.25C775.755 217.25 776.672 220.167 777.672 221C777.672 221 778.505 220.583 780.172 219.75C782.005 218.75 784.005 217.75 786.172 216.75C788.505 215.583 790.422 214.583 791.922 213.75C793.589 212.75 794.422 212.25 794.422 212.25C796.089 212.25 796.922 212.917 796.922 214.25C796.922 215.583 795.505 217.5 792.672 220C790.005 222.5 787.089 224.75 783.922 226.75C780.755 228.75 778.339 229.833 776.672 230ZM800.146 231C796.98 231 795.396 229.417 795.396 226.25C795.563 219.25 796.313 210.833 797.646 201C798.48 194.667 799.23 189.333 799.896 185C800.563 180.667 800.98 177.417 801.146 175.25C801.48 172.917 802.646 171.75 804.646 171.75C806.48 171.75 807.396 172.833 807.396 175C807.396 181 807.396 185.917 807.396 189.75C807.396 193.417 807.313 196 807.146 197.5V198C807.146 199.667 807.813 200.5 809.146 200.5C809.813 200.5 810.48 200 811.146 199C817.146 189.667 823.646 185 830.646 185C833.813 185 836.146 187.167 837.646 191.5C837.98 192.333 838.396 193.917 838.896 196.25C839.563 198.417 840.23 201.333 840.896 205C841.396 207.167 842.48 208.25 844.146 208.25C845.146 208.25 846.48 207.667 848.146 206.5C848.98 206 850.23 205.083 851.896 203.75C853.73 202.417 855.98 200.667 858.646 198.5C869.98 189.667 876.813 185.25 879.146 185.25C883.146 185.25 886.23 191.5 888.396 204C890.396 214.667 892.563 220 894.896 220C895.563 220 896.98 220.25 899.146 220.75C901.146 220.917 902.396 220.917 902.896 220.75C903.23 220.583 903.563 220.5 903.896 220.5C904.23 220.333 904.563 220.25 904.896 220.25C907.063 220.25 908.146 221.25 908.146 223.25C908.146 225.583 906.313 227.5 902.646 229C899.98 230.167 896.646 230.5 892.646 230C888.813 230 885.646 227.417 883.146 222.25C882.146 219.917 880.646 215.083 878.646 207.75C877.313 202.417 875.896 199.75 874.396 199.75C872.396 199.75 869.48 200.833 865.646 203C861.813 205.167 857.98 207.667 854.146 210.5C850.313 213.333 847.23 216 844.896 218.5C844.23 219.333 842.98 219.75 841.146 219.75C837.48 219.75 835.396 218.917 834.896 217.25C831.73 205.083 829.063 199 826.896 199C821.396 199 816.48 202.5 812.146 209.5C810.98 211.333 809.813 213.75 808.646 216.75C807.48 219.75 806.23 223.417 804.896 227.75C804.23 229.417 803.646 230.083 803.146 229.75C802.313 230.583 801.313 231 800.146 231Z" fill="#C75A5A"/>
</svg>
