<svg width="128" height="161" viewBox="0 0 128 161" fill="none" xmlns="http://www.w3.org/2000/svg">
<path d="M66.0317 155.565C66.0317 158.379 63.7576 160.66 60.9524 160.66C58.1471 160.66 55.873 158.379 55.873 155.565C55.873 152.751 58.1471 150.47 60.9524 150.47C63.7576 150.47 66.0317 152.751 66.0317 155.565Z" fill="#C75A5A"/>
<path d="M64.3943 2.30829C63.7149 0.660935 61.9697 -0.275425 60.2265 0.0720064C58.4832 0.419438 57.2275 1.95386 57.2275 3.73664V76.7637H7.44974V0.000369586H0V161H7.44974V84.2363H57.2275V149.976C58.3515 149.422 59.6158 149.111 60.9524 149.111C62.289 149.111 63.5532 149.422 64.6772 149.976V22.541L120.833 158.692C121.513 160.339 123.258 161.275 125.001 160.928C126.744 160.581 128 159.046 128 157.263V0.000369586H120.55V138.459L64.3943 2.30829Z" fill="#C75A5A"/>
</svg>
