<svg width="158" height="158" viewBox="0 0 158 158" fill="none" xmlns="http://www.w3.org/2000/svg">
<path d="M125.083 19.75C128.575 19.75 131.924 21.1372 134.394 23.6064C136.863 26.0757 138.25 29.4246 138.25 32.9167V125.083C138.25 128.575 136.863 131.924 134.394 134.394C131.924 136.863 128.575 138.25 125.083 138.25H32.9167C29.4246 138.25 26.0757 136.863 23.6064 134.394C21.1372 131.924 19.75 128.575 19.75 125.083V32.9167C19.75 29.4246 21.1372 26.0757 23.6064 23.6064C26.0757 21.1372 29.4246 19.75 32.9167 19.75H125.083ZM121.792 121.792V86.9C121.792 81.208 119.531 75.7492 115.506 71.7243C111.481 67.6995 106.022 65.4383 100.33 65.4383C94.7342 65.4383 88.2167 68.8617 85.0567 73.9967V66.6892H66.6892V121.792H85.0567V89.3358C85.0567 84.2667 89.1383 80.1192 94.2075 80.1192C96.6519 80.1192 98.9962 81.0902 100.725 82.8187C102.453 84.5471 103.424 86.8914 103.424 89.3358V121.792H121.792ZM45.2933 56.3533C48.2266 56.3533 51.0398 55.1881 53.1139 53.1139C55.1881 51.0398 56.3533 48.2266 56.3533 45.2933C56.3533 39.1708 51.4158 34.1675 45.2933 34.1675C42.3426 34.1675 39.5127 35.3397 37.4262 37.4262C35.3397 39.5127 34.1675 42.3426 34.1675 45.2933C34.1675 51.4158 39.1708 56.3533 45.2933 56.3533ZM54.4442 121.792V66.6892H36.2083V121.792H54.4442Z" fill="#C75A5A"/>
</svg>
